<svg id="Capa_1" enable-background="new 0 0 512 512" height="512" viewBox="0 0 512 512" width="512" xmlns="http://www.w3.org/2000/svg"><g><g><g><path d="m298.62 150.371h131.703v29.978h-131.703z" fill="#d6e8fd"/></g><g><g><g><path d="m139.96 316.482h15.832v111.192h-15.832z" fill="#edf5ff"/></g><g><path d="m154.96 316.482h15v111.192h-15z" fill="#d6e8fd"/></g></g><g><g><g><path d="m30.618 71.205h128.079v196.903h-128.079z" fill="#17799c"/></g><g><path d="m154.96 71.205h124.343v196.903h-124.343z" fill="#0b495d"/></g><g><g><path d="m158.697 202.266h-158.697v-74.529h158.697z" fill="#0b495d"/></g><g><path d="m158.697 74.529h-158.697v-74.529h158.697z" fill="#0b495d"/></g><g><path d="m158.697 332.471h-158.697v-74.529h158.697z" fill="#0b495d"/></g></g></g><g fill="#032d3f"><g><path d="m154.96 127.736h154.96v74.529h-154.96z"/><path d="m154.96 0h154.96v74.529h-154.96z"/></g><path d="m154.96 257.941h154.96v74.529h-154.96z"/></g></g><g><g><path d="m154.96 511.388c-26.321 0-47.736-21.443-47.736-47.799s21.414-47.799 47.736-47.799 26.322 95.598 0 95.598z" fill="#7be2f6"/></g><g><path d="m154.96 415.79v95.598c26.322 0 47.736-21.443 47.736-47.799s-21.414-47.799-47.736-47.799z" fill="#55d0f9"/></g></g></g></g><g><g><g><path d="m366.421 512c-80.337 0-145.696-65.359-145.696-145.697 0-80.337 65.359-145.696 145.696-145.696 80.338 0 80.338 291.393 0 291.393z" fill="#fd657d"/></g><g><path d="m512 366.303c0-80.337-65.359-145.696-145.697-145.696v291.393c80.338 0 145.697-65.359 145.697-145.697z" fill="#e43b54"/></g></g><g><g><g><g><path d="m367.745 285.6c-.46-.015-.919-.035-1.382-.035-23.161 0-42.005 18.948-42.005 42.238v36.693h29.834v-36.693c0-6.748 5.46-12.238 12.171-12.238.468 0 .928.033 1.382.085z" fill="#edf5ff"/></g></g></g></g><g><path d="m366.363 285.565c-.02 0-.039.001-.059.001v30.001c.02 0 .039-.003.059-.003 6.712 0 12.172 5.49 12.172 12.238v36.693h29.834v-36.693c-.001-23.289-18.844-42.237-42.006-42.237z" fill="#b6dcfe"/></g><g><path d="m368.201 441.363h-63.453v-86.189h63.453z" fill="#fed943"/></g><g><path d="m366.303 355.174h61.674v86.189h-61.674z" fill="#fcbe2c"/></g></g></g></svg>