<svg id="Capa_1" enable-background="new 0 0 512 512" height="512" viewBox="0 0 512 512" width="512" xmlns="http://www.w3.org/2000/svg"><g><g><path d="m0 136.513h124.305v304.721h-124.305z" fill="#7be2f6"/><path d="m0 89.385h129.695v50.607h-129.695z" fill="#0b495d"/><path d="m0 439.22h124.305v72.585h-124.305z" fill="#0b495d"/><path d="m119.525 136.513h119.525v304.721h-119.525z" fill="#55d0f9"/><g fill="#032d3f"><path d="m119.525 89.385h119.525v50.607h-119.525z"/><path d="m119.525 439.22h119.525v72.585h-119.525z"/></g></g><g><path d="m272.95 136.513h124.305v304.721h-124.305z" fill="#7be2f6"/><path d="m272.95 89.385h129.695v50.607h-129.695z" fill="#0b495d"/><path d="m272.95 439.22h124.305v72.585h-124.305z" fill="#0b495d"/><path d="m392.475 136.513h119.525v304.721h-119.525z" fill="#55d0f9"/><g fill="#032d3f"><path d="m392.475 89.385h119.525v50.607h-119.525z"/><path d="m392.475 439.22h119.525v72.585h-119.525z"/></g></g><g><path d="m272.95 326.493h-95.776l15.388-15.388-21.195-21.195-51.842 51.842 51.842 51.841 21.195-21.195-15.932-15.931h96.32z" fill="#fd657d"/><path d="m340.633 230.37-21.195 21.195 15.388 15.388h-95.776v29.974h96.319l-15.931 15.932 21.195 21.195 51.842-51.843z" fill="#fed943"/></g><g><path d="m244.435.422c-1.686-.14-3.387-.228-5.109-.228-33.708 0-61.034 27.326-61.034 61.034v11.753h-15.064c-33.708 0-61.034 27.326-61.034 61.034 0 33.708 27.326 61.034 61.034 61.034h81.208v-194.627z" fill="#edf5ff"/><g><path d="m376.56 110.408h-17.346c7.62-15.025 5.159-33.849-7.4-46.408-14.024-14.024-35.86-15.458-51.493-4.322-.825-32.989-27.807-59.484-60.995-59.484-.094 0-.186.003-.28.004v194.852h137.514c23.373 0 42.321-18.948 42.321-42.321 0-23.373-18.947-42.321-42.321-42.321z" fill="#d6e8fd"/></g></g></g></svg>