<svg id="Capa_1" enable-background="new 0 0 512 512" height="512" viewBox="0 0 512 512" width="512" xmlns="http://www.w3.org/2000/svg"><g><g><g><path d="m130.548 141.577h29.903v168.018h-29.903z" fill="#17799c" transform="matrix(.703 -.711 .711 .703 -117.238 170.557)"/></g><g><path d="m286.644 206.497h160.389v29.904h-160.389z" fill="#0b495d" transform="matrix(.729 -.685 .685 .729 -52.158 311.183)"/></g><g><path d="m97.317 512h-97.317v-23.668c0-53.814 43.503-97.439 97.317-97.439 13.83 0 24.975 20.057 24.975 73.871z" fill="#fd657d"/><g><path d="m194.756 488.332c0-53.814-43.625-97.439-97.439-97.439v121.107h25.857z" fill="#e43b54"/></g><g><g><g><path d="m97.317 407.604c-27.543 0-49.951-22.408-49.951-49.952 0-27.543 22.408-49.951 49.951-49.951s27.543 99.903 0 99.903z" fill="#ffdfcf"/></g></g></g><g><path d="m97.317 307.701v99.902c27.543 0 49.951-22.408 49.951-49.952 0-27.542-22.408-49.95-49.951-49.95z" fill="#ffcebf"/></g></g><g><path d="m414.561 512h-25.735l-71.582-23.668c0-53.814 43.503-97.439 97.317-97.439 13.83 0 24.975 20.057 24.975 73.871z" fill="#fed943"/><g><path d="m512 488.332c0-53.814-43.625-97.439-97.439-97.439v121.107h97.439z" fill="#fcbe2c"/></g><g><g><g><path d="m414.561 407.604c-27.543 0-49.951-22.408-49.951-49.952 0-27.543 22.408-49.951 49.951-49.951s27.543 99.903 0 99.903z" fill="#ffdfcf"/></g></g></g><g><path d="m414.561 307.701v99.902c27.543 0 49.951-22.408 49.951-49.952 0-27.542-22.408-49.95-49.951-49.95z" fill="#ffcebf"/></g></g><g><g><g><g><path d="m261.188 75.33c-1.14-.063-3.957-18.069-5.104-18.069-17.948 0-35.102 7.721-47.065 21.183l22.365 19.874c6.29-7.078 15.293-11.138 24.7-11.138 1.151 0 5.104-11.85 5.104-11.85z" fill="#17799c"/></g><g><path d="m259.515 16.333c-1.142-.033-2.286-16.333-3.431-16.333-34.218 0-66.921 14.719-89.727 40.382l22.365 19.874c17.131-19.28 41.684-30.337 67.361-30.337 1.147 0 3.432-13.586 3.432-13.586z" fill="#17799c"/></g></g></g><g fill="#0b495d"><path d="m280.784 98.318 22.365-19.874c-11.963-13.462-29.117-21.183-47.065-21.183-.028 0-.056.002-.084.002v29.919c.028 0 .056-.002.084-.002 9.407 0 18.41 4.059 24.7 11.138z"/><path d="m323.446 60.256 22.365-19.874c-22.806-25.663-55.509-40.382-89.727-40.382-.028 0-.056.001-.084.001v29.919c.028 0 .056-.001.084-.001 25.678 0 50.23 11.057 67.362 30.337z"/></g></g></g><ellipse cx="56.524" cy="135.427" fill="#7be2f6" rx="56.524" ry="56.599"/><ellipse cx="455.476" cy="135.427" fill="#55d0f9" rx="56.524" ry="56.599"/><g><path d="m255.917 512h-132.743v-32.283c0-73.404 59.339-132.909 132.742-132.909 18.864 0 34.067 27.358 34.067 100.761z" fill="#badb47"/><g><path d="m388.826 479.717c0-73.403-59.505-132.909-132.909-132.909v165.192h132.909z" fill="#92ca32"/></g><g><g><g><path d="m255.917 369.601c-37.57 0-68.134-30.565-68.134-68.135 0-37.569 30.565-68.134 68.134-68.134s37.569 136.269 0 136.269z" fill="#ffdfcf"/></g></g></g><g><path d="m255.917 233.332v136.269c37.569 0 68.134-30.565 68.134-68.135 0-37.569-30.565-68.134-68.134-68.134z" fill="#ffcebf"/></g></g></g></svg>